<svg xmlns="http://www.w3.org/2000/svg" viewBox="0 0 100 100">
    <defs>
        <linearGradient id="grad" x1="0%" y1="0%" x2="100%" y2="100%">
            <stop offset="0%" style="stop-color:#8b5cf6;stop-opacity:1" />
            <stop offset="100%" style="stop-color:#06b6d4;stop-opacity:1" />
        </linearGradient>
    </defs>
    <!-- Rounded background -->
    <rect width="100" height="100" rx="22" fill="url(#grad)" />
    <!-- Magic Wand Handle -->
    <line x1="12" y1="88" x2="32" y2="68" stroke="white" stroke-width="12" stroke-linecap="round" />
    <!-- Connection Bead -->
    <circle cx="32" cy="68" r="6.5" fill="white" />
    <!-- Wand Shaft -->
    <line x1="32" y1="68" x2="70" y2="30" stroke="white" stroke-width="6.5" stroke-linecap="round" />
    <!-- Main Sparkle/Star at the tip of the wand -->
    <path d="M 76 2 Q 76 24 54 24 Q 76 24 76 46 Q 76 24 98 24 Q 76 24 76 2 Z" fill="white" />
    <!-- Floating Sparkles -->
    <path d="M 25 15 Q 25 30 10 30 Q 25 30 25 45 Q 25 30 40 30 Q 25 30 25 15 Z" fill="rgba(255, 255, 255, 0.9)" />
    <path d="M 82 58 Q 82 68 72 68 Q 82 68 82 78 Q 82 68 92 68 Q 82 68 82 58 Z" fill="rgba(255, 255, 255, 0.9)" />
    <path d="M 92 4 Q 92 10 86 10 Q 92 10 92 16 Q 92 10 98 10 Q 92 10 92 4 Z" fill="rgba(255, 255, 255, 0.95)" />
    <!-- Magic Dust -->
    <circle cx="48" cy="52" r="3.5" fill="rgba(255, 255, 255, 0.85)" />
    <circle cx="58" cy="42" r="2.5" fill="rgba(255, 255, 255, 0.75)" />
    <circle cx="68" cy="55" r="2" fill="rgba(255, 255, 255, 0.65)" />
    <circle cx="42" cy="72" r="2" fill="rgba(255, 255, 255, 0.75)" />
</svg>
